<svg width="17" height="18" viewBox="0 0 17 18" fill="none" xmlns="http://www.w3.org/2000/svg">
<path fill-rule="evenodd" clip-rule="evenodd" d="M1 9C1 5.07922 4.17842 1.9008 8.0992 1.9008C12.02 1.9008 15.1984 5.07922 15.1984 9C15.1984 12.9208 12.02 16.0992 8.0992 16.0992C4.17842 16.0992 1 12.9208 1 9ZM8.0992 0.900803C3.62613 0.900803 0 4.52694 0 9C0 13.4731 3.62613 17.0992 8.0992 17.0992C12.5723 17.0992 16.1984 13.4731 16.1984 9C16.1984 4.52694 12.5723 0.900803 8.0992 0.900803ZM7.61523 3.40482V6.75953V10.1142V10.3213L7.76168 10.4678L11.0322 13.7383L11.7393 13.0312L8.61523 9.90713V6.75953V3.40482H7.61523Z" fill="#FF3864"/>
</svg>