<svg width="29" height="16" viewBox="0 0 29 16" fill="none" xmlns="http://www.w3.org/2000/svg">
<path d="M21.3554 0.990181C21.0956 0.997922 20.8491 1.1065 20.6679 1.29292L11.375 10.5859L8.09176 7.30268C8.08853 7.2994 8.08527 7.29615 8.08199 7.29292C7.89449 7.10537 7.64016 6.99999 7.37496 6.99995C7.10975 6.99995 6.85539 7.1053 6.66786 7.29284C6.48032 7.48038 6.37496 7.73473 6.37496 7.99995C6.375 8.26515 6.48039 8.51947 6.66793 8.70698L9.9609 11.9999L8.37496 13.5859L2.08199 7.29292C1.98985 7.19694 1.87948 7.12032 1.75735 7.06753C1.63522 7.01475 1.50379 6.98686 1.37075 6.98551C1.23771 6.98416 1.10573 7.00936 0.982557 7.05965C0.85938 7.10994 0.747475 7.1843 0.653396 7.27838C0.559317 7.37246 0.484956 7.48436 0.434667 7.60754C0.384378 7.73072 0.359172 7.86269 0.360525 7.99573C0.361879 8.12877 0.389765 8.26021 0.44255 8.38233C0.495335 8.50446 0.571957 8.61483 0.667931 8.70698L7.66793 15.707C7.85547 15.8944 8.10979 15.9998 8.37496 15.9998C8.64013 15.9998 8.89445 15.8944 9.08199 15.707L22.082 2.70698C22.2265 2.56652 22.3252 2.38567 22.3652 2.18816C22.4051 1.99064 22.3845 1.78565 22.3059 1.60007C22.2274 1.41448 22.0946 1.25695 21.925 1.14812C21.7554 1.03929 21.5569 0.98424 21.3554 0.990181ZM27.375 0.999946C27.1098 0.999987 26.8554 1.10537 26.6679 1.29292L14.375 13.5859L14.082 13.2929L12.6679 14.707L13.6679 15.707C13.8555 15.8944 14.1098 15.9998 14.375 15.9998C14.6401 15.9998 14.8945 15.8944 15.082 15.707L28.0722 2.71674C28.168 2.62356 28.2442 2.51211 28.2962 2.389C28.3482 2.26588 28.375 2.13359 28.375 1.99995C28.375 1.73473 28.2696 1.48038 28.0821 1.29284C27.8945 1.1053 27.6402 0.999946 27.375 0.999946Z" fill="#FF3864"/>
</svg>
