<svg width="268" height="56" viewBox="0 0 268 56" fill="none" xmlns="http://www.w3.org/2000/svg">
<path d="M53.1255 55.03H63.7795V3.12618H53.1255V55.03ZM71.9389 55.03H82.6017V3.11312H71.952L71.9389 55.03ZM41.7261 35.0958C38.3618 25.5058 35.0005 15.9056 31.642 6.29526C31.3658 5.5019 30.98 5.27522 30.1601 5.28394C26.2551 5.32753 22.3501 5.32753 18.4451 5.28394C18.1264 5.23766 17.802 5.31506 17.5392 5.50009C17.2764 5.68512 17.0952 5.96361 17.0333 6.27783C12.0147 20.6658 6.98431 35.0508 1.94228 49.4329C1.29778 51.2637 0.675194 53.1033 0 55.0692C4.10816 55.0692 8.04533 55.0692 11.9825 55.0387C12.2105 55.0387 12.5481 54.6551 12.6445 54.3805C13.083 53.0728 13.4907 51.765 13.9029 50.4573C14.635 48.1121 15.3672 45.7669 16.095 43.3869C21.4352 43.3869 26.6877 43.3869 31.9402 43.3869C32.6329 43.3869 32.782 43.8228 32.9354 44.3023C33.9833 47.6152 35.0224 50.9325 36.1053 54.2323C36.215 54.5636 36.6095 55.0474 36.877 55.0518C40.744 55.1041 44.6066 55.0867 48.6227 55.0867C48.4342 54.472 48.3027 53.9577 48.1273 53.4607C46.0053 47.3376 43.8715 41.2189 41.7261 35.1046V35.0958ZM18.6029 35.401C20.497 29.3811 22.3603 23.4788 24.2193 17.5766H24.4867L30.1031 35.4053L18.6029 35.401ZM100.45 16.7702C97.6006 16.8007 94.7508 16.8181 91.9097 16.7702C90.967 16.7702 90.6645 17.0012 90.6689 17.982C90.704 29.9347 90.6908 41.8873 90.6908 53.84V55.0387H101.376C101.397 54.7161 101.437 54.4372 101.437 54.1669C101.437 42.037 101.446 29.9027 101.463 17.764C101.463 16.9358 101.174 16.7658 100.45 16.7702ZM266.675 38.3913C267.701 38.3913 268.065 38.06 267.991 37.1054C267.921 35.7976 267.92 34.4899 267.793 33.1822C266.969 24.7953 261.195 17.0535 251.602 16.0378C244.39 15.2881 238.339 17.5941 234.007 23.5224C230.452 28.3872 229.693 33.9276 230.548 39.7688C231.824 48.487 238.554 54.9515 247.305 55.8234C252.93 56.3813 258.021 55.0431 262.466 51.5427C264.686 49.8529 266.383 47.5765 267.364 44.9735L256.718 41.6258C254.386 45.2961 251.247 46.6736 247.533 45.7321C244.464 44.9561 241.785 41.7304 241.557 38.3826H242.811C250.769 38.3913 258.726 38.3608 266.675 38.3913ZM249.169 25.8851C252.882 25.9504 256.372 28.8667 256.565 32.184H241.842C242.215 29.0541 245.573 25.8197 249.169 25.8851ZM136.985 20.5713C130.365 14.2942 119.01 14.3204 112.385 20.6236C110.525 22.307 109.21 24.5028 108.61 26.9312L118.917 30.5188C119.014 30.2703 119.088 30.1134 119.141 29.9477C120.071 27.0489 122.399 25.4753 125.455 25.6802C127.783 25.8371 129.628 27.2015 130.137 29.1457C130.536 30.6583 130.084 31.4473 128.559 31.7611C125.634 32.3757 122.684 32.8858 119.79 33.5702C117.462 34.1194 115.037 34.564 112.911 35.5797C111.349 36.324 109.999 37.4433 108.982 38.8364C107.964 40.2296 107.312 41.8527 107.084 43.5593C106.855 45.2659 107.058 47.0021 107.673 48.6113C108.289 50.2205 109.298 51.6519 110.609 52.7763C114.454 56.1241 118.983 56.5949 123.762 55.4136C126.672 54.6835 129.245 52.9929 131.062 50.6186C131.566 51.9263 131.992 53.1294 132.487 54.2846C132.619 54.5897 132.974 55.0082 133.232 55.0126C135.863 55.0649 138.472 55.0474 141.124 55.0474C141.155 54.8787 141.177 54.7084 141.19 54.5374C141.168 46.4949 141.19 38.448 141.107 30.4054C141.076 26.6217 139.813 23.2522 136.985 20.5713ZM121.263 45.8933C120.543 45.7552 119.885 45.3962 119.381 44.8669C118.877 44.3375 118.552 43.6644 118.453 42.9422C118.26 41.3729 118.996 39.7601 120.601 39.3024C123.727 38.4088 126.936 37.7898 130.124 37.0574C131.08 42.2404 126.2 46.97 121.263 45.8933ZM96.1362 0.00507696C95.2583 -0.0297351 94.3825 0.114767 93.563 0.42968C92.7435 0.744592 91.9976 1.22321 91.3714 1.83598C90.7452 2.44876 90.252 3.18267 89.9223 3.99239C89.5926 4.8021 89.4334 5.67043 89.4544 6.54373C89.4106 10.5454 92.107 13.3526 96.031 13.3744C96.9064 13.4043 97.7788 13.2562 98.5946 12.9392C99.4105 12.6222 100.153 12.143 100.776 11.5308C101.399 10.9187 101.89 10.1866 102.218 9.37927C102.547 8.57196 102.706 7.70645 102.686 6.83578C102.704 2.89515 99.9594 0.0312316 96.1362 0.00507696ZM183.197 26.2512C182.109 22.0665 179.768 18.6446 175.643 16.9489C170.311 14.7693 165.418 15.894 161.152 19.6603C160.275 20.4536 159.578 21.4911 158.723 22.5068C158.175 21.0726 157.574 19.7126 157.145 18.3002C156.794 17.1625 156.246 16.6917 154.979 16.7876C153.203 16.9227 151.406 16.8225 149.617 16.8225H148.266V54.9908H158.951V53.7223C158.951 47.7474 158.951 41.7711 158.951 35.7933C158.951 33.3042 159.477 30.9678 161.113 28.9975C162.888 26.8659 165.216 25.9461 167.93 26.4299C170.644 26.9138 172.227 28.8057 172.889 31.3732C173.18 32.6072 173.319 33.872 173.301 35.1394C173.341 41.3293 173.301 47.528 173.323 53.7223C173.323 54.1582 173.358 54.5592 173.376 55.03H184.082C184.109 54.6508 184.148 54.3674 184.148 54.0841C184.148 46.9831 184.218 39.8821 184.109 32.7855C184.065 30.5793 183.759 28.386 183.197 26.2512ZM215.83 39.8385C215.036 42.9771 212.682 45.222 209.731 45.6536C206.623 46.1113 203.882 44.8297 202.216 41.9265C200.147 38.3172 200.085 34.5161 201.686 30.7455C202.26 29.2762 203.287 28.0256 204.621 27.1735C205.955 26.3214 207.526 25.9115 209.108 26.0028C212.015 26.1684 214.243 28.0777 215.396 31.3993C215.518 31.7568 215.646 32.1186 215.786 32.5327L226.282 29.3375C225.405 26.1422 224.09 23.3655 221.775 21.1293C214.269 13.806 201.554 14.1809 194.491 21.9575C190.444 26.4125 189.124 31.7655 189.449 37.6503C189.984 47.3667 197.016 54.8644 206.666 55.8364C212.761 56.4554 218.193 54.9646 222.503 50.4268C224.756 48.0391 226.247 45.0421 226.791 41.8132L216.119 38.6398C215.992 39.1498 215.917 39.4985 215.83 39.8385Z" fill="url(#paint0_linear_537_169)"/>
<defs>
<linearGradient id="paint0_linear_537_169" x1="138.936" y1="5.43651" x2="133.618" y2="57.1587" gradientUnits="userSpaceOnUse">
<stop stop-color="#FF3864"/>
<stop offset="1" stop-color="#D93C3C"/>
</linearGradient>
</defs>
</svg>
