<svg width="60" height="58" viewBox="0 0 60 58" fill="none" xmlns="http://www.w3.org/2000/svg">
<path d="M59.2636 3.83676C59.2041 2.73328 59.0542 1.63665 58.8152 0.558055C58.7041 0.0461578 58.4608 -0.0818165 57.9581 0.0461577C56.2726 0.459978 54.6697 1.16055 53.2185 2.11763C52.4302 2.64062 51.7003 3.25319 50.9568 3.84273C50.8013 3.9605 50.6785 4.1165 50.6001 4.29577C50.5218 4.47504 50.4905 4.67158 50.5092 4.86652C50.5262 5.09261 50.5364 5.3204 50.5474 5.54905C50.5745 6.13005 50.2829 6.33908 49.7556 6.11726C49.7489 6.11436 49.7423 6.11093 49.7361 6.10702C49.6201 6.042 49.4851 6.01989 49.3546 6.04451C49.2241 6.06913 49.1062 6.13893 49.0215 6.24182C48.9234 6.34058 48.8304 6.44423 48.7426 6.55237C48.0249 7.4954 47.308 8.43871 46.5919 9.38231C46.5003 9.51365 46.3913 9.63189 46.2681 9.73381C46.0757 9.87799 45.8756 9.80547 45.8053 9.57427C45.7641 9.43381 45.7429 9.28817 45.7425 9.14172C45.7374 8.31244 45.7332 7.48317 45.7425 6.65304C45.7678 5.50276 45.4603 4.36988 44.8575 3.39226C43.6563 1.45387 41.9041 0.39766 39.6407 0.38145C34.061 0.343911 28.4822 0.369506 22.9008 0.369506C17.3195 0.369506 11.7559 0.369506 6.1839 0.369506C5.86397 0.372309 5.54478 0.400838 5.22937 0.454822C2.24626 0.936005 0.0421974 3.48013 0.00828877 6.66669C-0.010361 8.44298 0.00828877 10.2201 0.00828877 11.9964C0.00828877 12.5219 0.231238 12.7472 0.751735 12.7472H9.19837C9.28314 12.7472 9.37385 12.7472 9.46031 12.7514C9.92995 12.789 10.1054 12.9613 10.1563 13.434C10.1627 13.5072 10.1644 13.5807 10.1614 13.6541C10.1478 14.5269 10.1258 15.3997 10.1198 16.2724C10.1012 18.87 10.0859 21.4679 10.0741 24.0661C10.0605 26.4885 10.0461 28.9106 10.0308 31.3325C10.0156 33.9147 10.0009 36.4978 9.98675 39.0817C9.97233 41.5183 9.9486 43.955 9.94606 46.3916C9.94606 48.2185 9.96075 50.0454 9.99014 51.8723C10.0095 52.8959 10.3068 53.8946 10.8497 54.7603C12.0679 56.743 13.8515 57.795 16.159 57.7992C27.2742 57.8197 38.3897 57.8223 49.5055 57.8069C51.0431 57.8056 52.5251 57.2282 53.6629 56.1872C54.8006 55.1463 55.5125 53.7164 55.66 52.176C55.7447 51.2725 55.7184 50.358 55.7159 49.4459C55.7255 48.8892 55.6971 48.3325 55.6311 47.7797C55.3395 45.692 53.5966 44.2706 51.6019 44.2416C49.8658 44.2169 48.1263 44.2416 46.3936 44.2348C45.79 44.2348 45.5815 44.0181 45.5696 43.4115C45.5696 43.3603 45.5696 43.3091 45.5696 43.2579C45.584 42.2529 45.6052 41.2479 45.6111 40.2429C45.6298 37.1015 45.6527 33.9602 45.6476 30.8188C45.6476 30.2088 45.8171 29.7345 46.2664 29.3215C48.0178 27.727 49.7421 26.1009 51.4994 24.5131C53.9213 22.3248 55.8227 19.7585 57.1401 16.763C58.149 14.4809 58.8065 12.0574 59.0898 9.57597C59.2263 8.38155 59.2975 7.18712 59.3441 5.98331C59.3687 5.27263 59.3 4.55256 59.2636 3.83676ZM10.1571 9.70651C10.1539 9.83824 10.14 9.96949 10.1156 10.099C10.102 10.2089 10.0533 10.3113 9.97685 10.391C9.90043 10.4707 9.80038 10.5233 9.69174 10.5409C9.55664 10.5704 9.41884 10.5856 9.2806 10.5861C8.24554 10.5861 7.21048 10.5861 6.17542 10.5861H3.09143C3.02531 10.5861 2.95919 10.5861 2.89476 10.581C2.41071 10.5366 2.20387 10.343 2.19963 9.85581C2.18776 8.66138 2.15386 7.46184 2.20896 6.27253C2.31153 4.05772 4.23754 2.42563 6.44753 2.55701C8.18535 2.65939 9.80449 4.01507 10.1012 5.86045C10.1392 6.11459 10.1576 6.37131 10.1563 6.6283C10.1622 7.65295 10.1597 8.6793 10.1571 9.70651ZM19.6872 53.4055C18.8875 54.9059 17.6351 55.6424 15.9301 55.6151C14.1779 55.587 12.4765 54.2305 12.1806 52.246C12.1446 51.9917 12.1276 51.735 12.1298 51.4782C12.1264 48.7913 12.1264 46.1044 12.1298 43.4175C12.1366 40.864 12.1569 38.3096 12.1722 35.7552C12.1857 33.3488 12.2001 30.9417 12.2154 28.5341C12.2306 25.9211 12.2453 23.3082 12.2595 20.6952C12.2742 18.2495 12.2889 15.8058 12.3036 13.364C12.3171 11.1842 12.3409 9.00436 12.3434 6.82453C12.3572 5.64709 12.0594 4.48718 11.4804 3.46392C11.1193 2.82832 11.3024 2.52545 12.0408 2.52545C16.6139 2.52545 21.187 2.52545 25.7602 2.52545C30.2813 2.52545 34.8025 2.52545 39.3236 2.52545C40.3655 2.52545 41.3293 2.76262 42.1448 3.4571C42.973 4.16266 43.452 5.05422 43.5486 6.14541C43.5758 6.4517 43.5893 6.75969 43.5902 7.06768C43.5902 9.16646 43.6012 11.2661 43.5902 13.3657C43.5851 13.9988 43.5995 14.6412 43.3308 15.2427C43.0205 15.938 42.7204 16.6367 42.4364 17.3423C41.4429 19.8062 40.6783 22.3435 40.0518 24.9252C40.0222 25.0455 39.9942 25.1667 39.9611 25.2861C39.828 25.7656 39.611 25.9379 39.1134 25.9558C39.004 25.9601 38.8947 25.9558 38.7853 25.9558H15.9665C15.4189 25.9558 15.2358 26.141 15.2358 26.6947C15.2358 26.9736 15.2316 27.2526 15.2358 27.5316C15.2409 27.8959 15.4477 28.1032 15.8063 28.1135C15.8716 28.1135 15.9377 28.1135 16.003 28.1135H38.236C38.3089 28.1135 38.3818 28.1135 38.4547 28.1135C39.0634 28.1288 39.2948 28.3839 39.2126 28.9888C39.1448 29.4879 39.0549 29.9853 38.9583 30.4801C38.8616 30.975 38.659 31.1337 38.1623 31.1516C38.0826 31.1516 38.002 31.1516 37.9215 31.1516H15.975C15.4316 31.1516 15.2358 31.347 15.2358 31.8887C15.2358 32.16 15.2358 32.4322 15.2358 32.7035C15.2358 33.1087 15.4681 33.3408 15.8724 33.3527C15.9572 33.3527 16.0479 33.3527 16.1352 33.3527C23.3052 33.3527 30.4752 33.3527 37.6452 33.3527C37.783 33.3533 37.9206 33.3658 38.0563 33.3903C38.381 33.4491 38.5293 33.5891 38.5217 33.9235C38.5081 34.5386 38.4768 35.1546 38.4123 35.7663C38.37 36.1665 38.1521 36.3166 37.7147 36.3431C37.5833 36.3516 37.4519 36.3431 37.3205 36.3431H30.0556C29.502 36.3431 29.2841 36.5589 29.2841 37.1109C29.2841 37.3609 29.2841 37.6109 29.2841 37.86C29.2841 38.319 29.513 38.5476 29.9708 38.5485C32.4439 38.5485 34.9166 38.5485 37.3891 38.5485C37.52 38.5449 37.6508 38.5537 37.7799 38.5749C38.1648 38.6492 38.3038 38.8181 38.2987 39.2097C38.2928 39.6567 38.2708 40.103 38.264 40.5509C38.261 40.7407 38.2703 40.9305 38.292 41.1191C38.298 41.1492 38.3113 41.1774 38.3306 41.2012C38.35 41.225 38.3748 41.2437 38.403 41.2556C38.4348 41.2547 38.466 41.2466 38.4942 41.2318C38.5224 41.217 38.5469 41.196 38.5658 41.1703C38.6255 41.0871 38.6737 40.9961 38.709 40.8998C39.0413 40.0466 39.3804 39.2003 39.6975 38.3403C39.8933 37.8139 40.0594 37.2756 40.229 36.7398C40.4853 35.9585 40.8721 35.2268 41.3726 34.5762C41.7803 34.0319 42.2203 33.514 42.6501 32.985C42.6957 32.928 42.7478 32.8764 42.8052 32.8315C43.0875 32.6156 43.3418 32.7052 43.4232 33.0524C43.4489 33.1591 43.462 33.2685 43.4622 33.3783C43.4622 34.2008 43.4681 35.0224 43.4622 35.8448C43.4503 38.3116 43.4362 40.7775 43.4198 43.2426C43.4147 44.0062 43.2002 44.222 42.439 44.222C34.3648 44.222 26.2903 44.2243 18.2155 44.2288C17.2546 44.2253 16.3234 44.5636 15.5863 45.1839C14.8492 45.8043 14.3537 46.6669 14.1872 47.6193C14.1313 47.9362 14.103 48.2573 14.1024 48.5791C14.0914 49.6285 14.0982 50.6779 14.0982 51.7281C14.0982 52.2255 14.327 52.4593 14.8162 52.4593C15.7427 52.4593 16.6684 52.4644 17.595 52.4593C18.0909 52.4593 18.586 52.4226 19.081 52.4201C19.7787 52.4337 20.0169 52.7878 19.6872 53.4055ZM20.0508 49.7428C20.0186 50.0781 19.8753 50.1984 19.5422 50.2445C19.3105 50.2688 19.0775 50.2791 18.8445 50.2752C18.6182 50.2803 18.3927 50.2752 18.1664 50.2752C17.7874 50.2752 17.4085 50.282 17.0287 50.2752C16.5438 50.265 16.3132 50.0798 16.298 49.6208C16.2722 49.0863 16.2839 48.5506 16.3327 48.0177C16.4362 47.0392 17.3898 46.3276 18.3673 46.4582C19.4227 46.5998 20.078 47.3318 20.0915 48.4042C20.1021 48.8508 20.0886 49.2977 20.0508 49.7428ZM51.0492 46.4027C51.3408 46.3975 51.6324 46.4172 51.9207 46.4616C52.8786 46.6271 53.5025 47.3574 53.5212 48.3692C53.5415 49.5065 53.5517 50.6446 53.5212 51.7819C53.5012 52.6316 53.2072 53.4518 52.6837 54.1187C52.1601 54.7857 51.4354 55.2633 50.6186 55.4795C50.1431 55.5942 49.6554 55.6492 49.1665 55.6433C44.6741 55.6552 40.1812 55.6575 35.6878 55.6501C31.1452 55.6501 26.602 55.6501 22.0582 55.6501C21.9272 55.6547 21.796 55.6465 21.6666 55.6254C21.2664 55.546 21.1401 55.2841 21.3207 54.9121C21.458 54.6289 21.6191 54.3576 21.7446 54.0701C22.0951 53.2786 22.2756 52.4215 22.2744 51.5549C22.2744 50.5858 22.2939 49.6166 22.2668 48.6482C22.2441 48.1673 22.1857 47.6888 22.0921 47.2166C22.0074 46.7243 22.1362 46.5068 22.6253 46.4488C22.7128 46.4419 22.8005 46.4402 22.8881 46.4437C30.3192 46.4437 37.7508 46.4437 45.183 46.4437C47.1421 46.4411 49.0952 46.4095 51.0492 46.4027ZM55.5379 15.0464C54.5918 17.4805 53.2626 19.6723 51.4553 21.5441C50.5101 22.5201 49.4886 23.4211 48.4934 24.3476C47.3218 25.4385 46.1452 26.5243 44.9635 27.605C44.8336 27.7328 44.6877 27.8429 44.5295 27.9326C44.3124 28.0444 44.1471 27.9181 44.1734 27.6767C44.1879 27.5608 44.222 27.4482 44.2743 27.3439C45.8875 24.0072 47.6948 20.7891 49.9294 17.8286C50.3838 17.2254 50.3643 17.0548 49.776 16.5856C49.6064 16.449 49.4369 16.3032 49.2673 16.1743C48.9206 15.9184 48.7087 15.9406 48.4425 16.2767C48.0978 16.713 47.7649 17.1583 47.4439 17.6128C45.779 19.9726 44.3506 22.4758 43.0307 25.0429C42.8896 25.3155 42.7292 25.5775 42.5509 25.827C42.4907 25.9123 42.3525 25.9371 42.2491 25.99C42.2118 25.8773 42.1279 25.7579 42.144 25.6547C42.2034 25.2348 42.2837 24.8182 42.3847 24.4065C43.2325 21.1414 44.3396 17.9685 45.8265 14.9364C46.787 12.9506 47.9416 11.0661 49.2733 9.31064C49.6547 8.81325 49.9328 8.75609 50.4728 9.07773C51.0128 9.39937 51.529 9.72869 52.0572 10.0537C52.1623 10.1186 52.2674 10.1851 52.3776 10.2423C52.6845 10.4001 52.9176 10.2636 52.9117 9.91212C52.9032 9.41302 52.871 8.91563 52.8489 8.41738C52.8074 7.48743 52.7642 6.55663 52.726 5.62669C52.7171 5.47921 52.7438 5.33176 52.8037 5.19688C52.8636 5.06201 52.9551 4.94369 53.0702 4.85202C54.024 4.05412 55.0876 3.39948 56.2279 2.90852C56.7213 2.69608 57.0324 2.92131 57.0689 3.49634C57.118 4.27955 57.1536 5.06275 57.1884 5.8468C57.1672 9.01459 56.684 12.0894 55.5379 15.0464Z" fill="url(#paint0_linear_537_165)"/>
<defs>
<linearGradient id="paint0_linear_537_165" x1="29.6732" y1="57.812" x2="29.6732" y2="-0.00247079" gradientUnits="userSpaceOnUse">
<stop stop-color="#C83B3B"/>
<stop offset="0.31" stop-color="#D53A44"/>
<stop offset="0.87" stop-color="#F6385D"/>
<stop offset="1" stop-color="#FF3864"/>
</linearGradient>
</defs>
</svg>
